<svg width="33" height="10" viewBox="0 0 33 10" fill="none" xmlns="http://www.w3.org/2000/svg">
<path d="M7.51172 7.92188C7.19531 8.30078 6.74805 8.5957 6.16992 8.80664C5.5918 9.01367 4.95117 9.11719 4.24805 9.11719C3.50977 9.11719 2.86133 8.95703 2.30273 8.63672C1.74805 8.3125 1.31836 7.84375 1.01367 7.23047C0.712891 6.61719 0.558594 5.89648 0.550781 5.06836V4.48828C0.550781 3.63672 0.693359 2.90039 0.978516 2.2793C1.26758 1.6543 1.68164 1.17773 2.2207 0.849609C2.76367 0.517578 3.39844 0.351562 4.125 0.351562C5.13672 0.351562 5.92773 0.59375 6.49805 1.07812C7.06836 1.55859 7.40625 2.25977 7.51172 3.18164H5.80078C5.72266 2.69336 5.54883 2.33594 5.2793 2.10938C5.01367 1.88281 4.64648 1.76953 4.17773 1.76953C3.58008 1.76953 3.125 1.99414 2.8125 2.44336C2.5 2.89258 2.3418 3.56055 2.33789 4.44727V4.99219C2.33789 5.88672 2.50781 6.5625 2.84766 7.01953C3.1875 7.47656 3.68555 7.70508 4.3418 7.70508C5.00195 7.70508 5.47266 7.56445 5.75391 7.2832V5.8125H4.1543V4.51758H7.51172V7.92188Z" fill="white"/>
<path d="M12.627 8.35547C12.209 8.86328 11.6309 9.11719 10.8926 9.11719C10.2129 9.11719 9.69336 8.92188 9.33398 8.53125C8.97852 8.14062 8.79688 7.56836 8.78906 6.81445V2.66016H10.4824V6.75586C10.4824 7.41602 10.7832 7.74609 11.3848 7.74609C11.959 7.74609 12.3535 7.54688 12.5684 7.14844V2.66016H14.2676V9H12.6738L12.627 8.35547Z" fill="white"/>
<path d="M17.332 9H15.6328V2.66016H17.332V9ZM15.5332 1.01953C15.5332 0.765625 15.6172 0.556641 15.7852 0.392578C15.957 0.228516 16.1895 0.146484 16.4824 0.146484C16.7715 0.146484 17.002 0.228516 17.1738 0.392578C17.3457 0.556641 17.4316 0.765625 17.4316 1.01953C17.4316 1.27734 17.3438 1.48828 17.168 1.65234C16.9961 1.81641 16.7676 1.89844 16.4824 1.89844C16.1973 1.89844 15.9668 1.81641 15.791 1.65234C15.6191 1.48828 15.5332 1.27734 15.5332 1.01953Z" fill="white"/>
<path d="M18.4688 5.7832C18.4688 4.79492 18.6895 4.00781 19.1309 3.42188C19.5762 2.83594 20.1836 2.54297 20.9531 2.54297C21.5703 2.54297 22.0801 2.77344 22.4824 3.23438V0H24.1816V9H22.6523L22.5703 8.32617C22.1484 8.85352 21.6055 9.11719 20.9414 9.11719C20.1953 9.11719 19.5957 8.82422 19.1426 8.23828C18.6934 7.64844 18.4688 6.83008 18.4688 5.7832ZM20.1621 5.90625C20.1621 6.5 20.2656 6.95508 20.4727 7.27148C20.6797 7.58789 20.9805 7.74609 21.375 7.74609C21.8984 7.74609 22.2676 7.52539 22.4824 7.08398V4.58203C22.2715 4.14062 21.9062 3.91992 21.3867 3.91992C20.5703 3.91992 20.1621 4.58203 20.1621 5.90625Z" fill="white"/>
<path d="M28.7637 5.87695H27.3633V9H25.6055V0.46875H28.7754C29.7832 0.46875 30.5605 0.693359 31.1074 1.14258C31.6543 1.5918 31.9277 2.22656 31.9277 3.04688C31.9277 3.62891 31.8008 4.11523 31.5469 4.50586C31.2969 4.89258 30.916 5.20117 30.4043 5.43164L32.25 8.91797V9H30.3633L28.7637 5.87695ZM27.3633 4.45312H28.7812C29.2227 4.45312 29.5645 4.3418 29.8066 4.11914C30.0488 3.89258 30.1699 3.58203 30.1699 3.1875C30.1699 2.78516 30.0547 2.46875 29.8242 2.23828C29.5977 2.00781 29.248 1.89258 28.7754 1.89258H27.3633V4.45312Z" fill="white"/>
</svg>
